<?xml version="1.0" encoding="UTF-8"?>
<!DOCTYPE svg PUBLIC "-//W3C//DTD SVG 1.1//EN" "http://www.w3.org/Graphics/SVG/1.1/DTD/svg11.dtd">
<!-- Creator: CorelDRAW 2019 (64-Bit) -->
<svg xmlns="http://www.w3.org/2000/svg" xml:space="preserve" width="95.9874mm" height="95.7252mm" version="1.1" style="shape-rendering:geometricPrecision; text-rendering:geometricPrecision; image-rendering:optimizeQuality; fill-rule:evenodd; clip-rule:evenodd"
viewBox="0 0 757.11 755.04"
 xmlns:xlink="http://www.w3.org/1999/xlink">
 <defs>
  <style type="text/css">
   <![CDATA[
    .fil0 {fill:white}
   ]]>
  </style>
 </defs>
 <g id="Layer_x0020_1">
  <metadata id="CorelCorpID_0Corel-Layer"/>
  <path class="fil0" d="M57.95 577.43c3.33,-6.11 17.82,-56.86 18.22,-64.28 0.65,-12.08 -47.29,-99.88 -16.42,-215.18 64.87,-242.3 346.22,-320.29 522.52,-177.69 155.29,125.6 161,347.93 46.26,471.53 -16.69,17.98 -73.3,66.68 -117.27,47.18 -31.13,-13.81 -53.11,-61.7 -64.7,-101.92 -13.71,-47.62 -14.19,-94.54 -41.88,-127.89 -55.81,-67.22 -159.96,32.82 -100.14,80.62 20.6,16.46 45.35,9.13 71.11,4.87 -1.18,-18.35 -9.54,-32.12 -13.88,-46.3l-23.21 2.41c5.48,-10.98 15.28,-17.01 25.39,-12.18 23.76,11.34 21.93,96.28 53.85,163.17 8.29,17.36 23.86,44.08 33.54,52.83 35.57,32.19 65.33,51.07 127.63,29.63 39.51,-13.6 79.39,-48.53 98.67,-73.96 50.43,-66.54 87.48,-156.54 77.97,-265.96 -7.69,-88.4 -39.33,-148.97 -89.91,-212.9 -10.33,-13.05 -53.46,-51.97 -68.74,-62.15l-54.46 -31.76c-37.11,-19.84 -91.18,-34.07 -136.59,-36.8 -105.33,-6.33 -205.05,31.82 -265.4,83.63 -108.37,93.04 -161.3,220.14 -132.96,368.42 6.56,34.35 31.18,104.05 50.4,124.69z"/>
  <path class="fil0" d="M326.44 170.19l-4.44 64.41c40.44,-23.48 59.25,-45.96 119.77,-54.73 115.87,-16.79 153.31,52.5 127.56,116.46 -7.95,19.75 -22.46,41.3 -36.11,52.76 -12.56,10.55 -16.43,20.65 -45.92,40.22 -15.21,10.1 -38.53,25.63 -57.47,31.65l14.64 46.68c49.14,-11.44 147.38,-87.44 170.9,-153.3 10,-28.02 12.81,-63.04 4.55,-92.39 -15.32,-54.43 -56.94,-88.81 -119.92,-93.43 -49.18,-3.61 -92.71,4.22 -135.88,23.45 -12.91,5.75 -26.4,14.6 -37.68,18.22z"/>
  <path class="fil0" d="M267.05 168.38c6.65,70.13 -46.06,261.82 -73.51,339.23l-38.13 101.79 38.89 29.95c20.51,-33.5 49.29,-122.78 62.76,-165.89 17.66,-56.51 36.87,-122.77 45.6,-185.22 6.85,-49.02 41.76,-169.58 -30.45,-172.5 -29.82,-1.21 -68.67,21.1 -70.82,44.76 -1.44,15.88 12.38,31.5 28.25,29.14 18.77,-2.8 11.27,-19.45 37.41,-21.25z"/>
  <path class="fil0" d="M161.99 700.2l-37.25 -28.55 -10.46 13.63c-25.07,-46.39 30.16,-197.33 48.41,-239.38 23.24,-53.56 39.36,-75.89 68.59,-117.82 12.6,-18.08 18.02,-72.61 22.56,-96.95 -9.05,3.99 -0.96,-0.88 -8.65,5.02 -3.16,2.42 -4.31,4.13 -7.02,7.14l-37.13 43.53c-81.34,94.93 -209.3,412.79 -100.81,454.79 26.93,10.42 56.37,-24.42 61.77,-41.4z"/>
  <path class="fil0" d="M125.17 591.48c-12.28,50.5 -13.14,56.78 9.9,76.16 56.58,39.22 82.57,58.12 151.75,78.08 29.16,8.41 56.93,12.89 69.82,5.81 12.36,-6.79 15.94,-24.89 6.56,-36.54 -14.99,-18.62 -89.86,-2.35 -184.22,-74.6 -18.12,-13.88 -49.57,-46.56 -53.8,-48.91z"/>
 </g>
</svg>